<svg width="21" height="15" viewBox="0 0 21 15" fill="none" xmlns="http://www.w3.org/2000/svg">
<path d="M1.54971 12.1909H0.74892C0.442124 12.1909 0.147855 12.069 -0.0690828 11.8521C-0.28602 11.6352 -0.407898 11.3409 -0.407898 11.0341V1.99898C-0.407898 1.69218 -0.28602 1.39795 -0.0690828 1.18102C0.147855 0.964079 0.442124 0.842201 0.74892 0.842201H11.2557C11.5625 0.842201 11.8567 0.964079 12.0736 1.18102C12.2906 1.39795 12.4124 1.69218 12.4124 1.99898V11.0341C12.4124 11.3409 12.2906 11.6352 12.0736 11.8521C11.8567 12.069 11.5625 12.1909 11.2557 12.1909H7.4842" fill="white"/>
<path d="M12.3668 3.25535C12.2875 1.60545 12.542 1.87323 11.6967 0.93409L11.2561 3.25535C11.0974 4.43385 10.9387 5.69092 10.542 6.79085C10.1453 7.89078 9.43124 8.83359 8.47915 9.54069C7.60641 10.0907 6.73366 10.3264 5.70223 10.4049C4.90883 10.4835 4.11543 10.4835 3.32202 10.4835C0.941812 10.4835 1.39717 10.4609 -0.447815 10.5168C-0.336019 10.9501 -0.314886 12.5378 1.11324 12.5378L10.1453 12.5262C10.4627 12.5262 11.5734 11.9763 11.8908 11.8191C12.4462 11.4263 12.6842 9.85495 12.6842 9.77639C12.5255 6.94799 12.5255 6.08375 12.3668 3.25535Z" fill="#E7EEFF"/>
<path d="M11.2558 12.5332H7.48434C7.39357 12.5332 7.30655 12.4971 7.24236 12.433C7.17818 12.3688 7.1421 12.2817 7.1421 12.191C7.14385 12.1007 7.18048 12.0147 7.24428 11.9509C7.30809 11.8871 7.39412 11.8505 7.48434 11.8487H11.2558C11.3628 11.8487 11.4687 11.8277 11.5675 11.7867C11.6663 11.7458 11.7561 11.6858 11.8318 11.6101C11.9074 11.5345 11.9674 11.4447 12.0083 11.3459C12.0493 11.2471 12.0703 11.1412 12.0703 11.0342V1.99902C12.0703 1.89205 12.0493 1.78614 12.0083 1.68732C11.9674 1.58849 11.9074 1.49869 11.8318 1.42305C11.7561 1.34742 11.6663 1.28743 11.5675 1.2465C11.4687 1.20557 11.3628 1.18448 11.2558 1.18448H0.749059C0.533031 1.18448 0.325786 1.2703 0.173031 1.42305C0.0202765 1.57581 -0.0655181 1.78299 -0.0655181 1.99902V11.0342C-0.0655181 11.2502 0.0202765 11.4574 0.173031 11.6101C0.325786 11.7629 0.533031 11.8487 0.749059 11.8487H1.54985C1.64007 11.8505 1.7261 11.8871 1.7899 11.9509C1.85371 12.0147 1.89034 12.1007 1.89209 12.191C1.89209 12.2817 1.85609 12.3688 1.79191 12.433C1.72773 12.4971 1.64062 12.5332 1.54985 12.5332H0.749059C0.351495 12.5332 -0.029799 12.3753 -0.310919 12.0941C-0.592039 11.813 -0.75 11.4317 -0.75 11.0342V1.99902C-0.75 1.60145 -0.592039 1.22018 -0.310919 0.93906C-0.029799 0.65794 0.351495 0.5 0.749059 0.5H11.2558C11.6534 0.5 12.0347 0.65794 12.3158 0.93906C12.5969 1.22018 12.7548 1.60145 12.7548 1.99902V11.0342C12.7548 11.4317 12.5969 11.813 12.3158 12.0941C12.0347 12.3753 11.6534 12.5332 11.2558 12.5332Z" fill="#333333"/>
<path d="M5.90731 9.25152C7.67823 9.25152 9.11384 7.81591 9.11384 6.04499C9.11384 4.27407 7.67823 2.83846 5.90731 2.83846C4.13639 2.83846 2.70078 4.27407 2.70078 6.04499C2.70078 7.81591 4.13639 9.25152 5.90731 9.25152Z" fill="#ED2490"/>
<path d="M5.39587 7.28027C5.35807 7.28073 5.32056 7.27322 5.2858 7.25822C5.25105 7.24322 5.21984 7.22105 5.1941 7.19316L4.38692 6.38589C4.33374 6.33063 4.30402 6.25668 4.30402 6.17971C4.30402 6.10275 4.33374 6.02879 4.38692 5.97353C4.41372 5.94632 4.44561 5.92472 4.48074 5.90998C4.51587 5.89523 4.55353 5.88764 4.59158 5.88764C4.62964 5.88764 4.6673 5.89523 4.70243 5.90998C4.73756 5.92472 4.76945 5.94632 4.79625 5.97353L5.37279 6.5543L7.016 4.89331C7.07086 4.83973 7.14425 4.80978 7.22066 4.80978C7.29707 4.80978 7.37046 4.83973 7.42532 4.89331C7.45234 4.9203 7.47375 4.95242 7.48838 4.98781C7.50302 5.0232 7.51055 5.06115 7.51055 5.09949C7.51055 5.13782 7.50302 5.17578 7.48838 5.21117C7.47375 5.24655 7.45234 5.27866 7.42532 5.30565L5.57464 7.16994C5.53131 7.22845 5.46729 7.26794 5.39587 7.28027Z" fill="white"/>
<path d="M18.7509 12.5332H18.176C18.0852 12.5332 17.9982 12.4971 17.934 12.433C17.8698 12.3688 17.8338 12.2817 17.8338 12.191C17.8338 12.1002 17.8698 12.0132 17.934 11.949C17.9982 11.8848 18.0852 11.8487 18.176 11.8487H18.7509C18.967 11.8487 19.1741 11.7629 19.3269 11.6102C19.4796 11.4574 19.5655 11.2502 19.5655 11.0342V7.80343C19.5662 7.61708 19.5034 7.43605 19.3876 7.29007L16.9166 4.27151C16.8412 4.17703 16.7453 4.10087 16.6363 4.04871C16.5272 3.99655 16.4077 3.96975 16.2868 3.97033H13.5489C13.3334 3.97212 13.1272 4.05852 12.9749 4.21089C12.8225 4.36326 12.7362 4.56939 12.7344 4.78487V11.0342C12.7344 11.125 12.6983 11.212 12.6341 11.2762C12.57 11.3404 12.4829 11.3764 12.3922 11.3764C12.3014 11.3764 12.2143 11.3404 12.1501 11.2762C12.0859 11.212 12.0499 11.125 12.0499 11.0342V4.78487C12.0517 4.38786 12.2102 4.00763 12.4909 3.7269C12.7717 3.44616 13.1519 3.28765 13.5489 3.28585H16.2868C16.5097 3.28638 16.7297 3.3364 16.931 3.43228C17.1322 3.52816 17.3096 3.6675 17.4504 3.84028L19.9146 6.85885C20.132 7.12562 20.2505 7.45932 20.25 7.80343V11.0342C20.25 11.4318 20.092 11.813 19.8109 12.0941C19.5298 12.3753 19.1485 12.5332 18.7509 12.5332Z" fill="#333333"/>
<path d="M19.5995 7.50224H15.7733C15.6825 7.50224 15.5955 7.46618 15.5313 7.40199C15.4671 7.33781 15.431 7.25077 15.431 7.16C15.431 7.06923 15.4671 6.98218 15.5313 6.918C15.5955 6.85382 15.6825 6.81776 15.7733 6.81776H19.5995C19.6903 6.81776 19.7774 6.85382 19.8416 6.918C19.9057 6.98218 19.9417 7.06923 19.9417 7.16C19.94 7.25022 19.9034 7.33624 19.8396 7.40005C19.7757 7.46386 19.6897 7.50049 19.5995 7.50224Z" fill="#333333"/>
<path d="M4.50006 11.0273C4.03752 11.0344 3.59589 11.2213 3.26879 11.5484C2.94169 11.8755 2.7548 12.3171 2.74774 12.7796C2.74774 13.0097 2.79312 13.2376 2.88118 13.4502C2.96924 13.6628 3.09831 13.8559 3.26102 14.0186C3.42373 14.1814 3.61685 14.3104 3.82944 14.3985C4.04204 14.4865 4.26994 14.5319 4.50006 14.5319C4.73017 14.5319 4.95799 14.4865 5.17058 14.3985C5.38318 14.3104 5.57638 14.1814 5.73909 14.0186C5.9018 13.8559 6.03087 13.6628 6.11893 13.4502C6.20699 13.2376 6.25229 13.0097 6.25228 12.7796C6.2487 12.316 6.06301 11.8723 5.73516 11.5445C5.40732 11.2167 4.96368 11.0309 4.50006 11.0273Z" fill="white"/>
<path d="M4.49984 14.8605C4.09732 14.8523 3.70609 14.7261 3.37477 14.4973C3.04345 14.2686 2.78662 13.9475 2.63631 13.5741C2.48601 13.2006 2.44883 12.7911 2.52936 12.3967C2.6099 12.0022 2.80458 11.6401 3.08927 11.3554C3.37395 11.0708 3.73606 10.876 4.13053 10.7955C4.52499 10.715 4.93441 10.7522 5.3079 10.9025C5.68139 11.0528 6.00246 11.3095 6.23118 11.6409C6.4599 11.9722 6.58618 12.3634 6.59431 12.766C6.59431 13.3215 6.37365 13.8542 5.98085 14.247C5.58805 14.6398 5.05534 14.8605 4.49984 14.8605ZM4.49984 11.3559C4.30095 11.3549 4.10425 11.3973 3.92339 11.48C3.74253 11.5628 3.58184 11.6839 3.45256 11.835C3.26998 12.0376 3.15001 12.2887 3.10723 12.558C3.06445 12.8273 3.10068 13.1032 3.21151 13.3523C3.32233 13.6015 3.50298 13.8131 3.73164 13.9616C3.96029 14.1102 4.22717 14.1893 4.49984 14.1893C4.77251 14.1893 5.0393 14.1102 5.26796 13.9616C5.49662 13.8131 5.67726 13.6015 5.78809 13.3523C5.89891 13.1032 5.93515 12.8273 5.89237 12.558C5.84958 12.2887 5.7297 12.0376 5.54712 11.835C5.41656 11.6864 5.25532 11.5678 5.07453 11.4875C4.89374 11.4071 4.69767 11.3669 4.49984 11.3696V11.3559Z" fill="#333333"/>
<path d="M15.2122 11.0274C14.8073 11.0223 14.413 11.1565 14.0953 11.4076C13.7776 11.6586 13.5558 12.0112 13.4671 12.4062C13.3784 12.8013 13.4281 13.2148 13.608 13.5776C13.7878 13.9403 14.0868 14.2303 14.4549 14.3988C14.823 14.5674 15.238 14.6043 15.6301 14.5035C16.0222 14.4026 16.3677 14.1701 16.6089 13.8448C16.85 13.5195 16.972 13.1213 16.9544 12.7168C16.9369 12.3123 16.7809 11.9261 16.5126 11.6228C16.3502 11.4374 16.1504 11.2884 15.9262 11.1858C15.7021 11.0831 15.4587 11.0291 15.2122 11.0274Z" fill="white"/>
<path d="M15.2123 14.8604C14.6568 14.8604 14.124 14.6397 13.7312 14.2469C13.3384 13.8541 13.1177 13.3214 13.1177 12.7659C13.1207 12.2593 13.3109 11.7718 13.6516 11.3969C13.8476 11.1778 14.0883 11.0032 14.3576 10.8851C14.6268 10.7671 14.9183 10.7082 15.2123 10.7124C15.5058 10.7112 15.7962 10.7715 16.065 10.8894C16.3338 11.0073 16.5749 11.1802 16.7728 11.3969C17.041 11.6977 17.2165 12.0696 17.278 12.4678C17.3395 12.8661 17.2844 13.2736 17.1194 13.6412C16.9544 14.0089 16.6865 14.3209 16.3481 14.5397C16.0097 14.7584 15.6152 14.8746 15.2123 14.8741V14.8604ZM15.2123 11.3559C15.0127 11.3566 14.8154 11.3996 14.6337 11.4822C14.452 11.5648 14.2899 11.6851 14.1581 11.835C13.9323 12.0929 13.806 12.4231 13.8022 12.7659C13.8103 13.033 13.8964 13.2918 14.0499 13.5105C14.2034 13.7293 14.4176 13.8983 14.666 13.9968C14.9144 14.0953 15.1861 14.1189 15.4478 14.0648C15.7095 14.0106 15.9496 13.8811 16.1386 13.6922C16.3275 13.5032 16.457 13.2631 16.5111 13.0015C16.5652 12.7398 16.5416 12.468 16.4431 12.2196C16.3446 11.9712 16.1756 11.7571 15.9569 11.6036C15.7382 11.4501 15.4793 11.364 15.2123 11.3559Z" fill="#333333"/>
</svg>
